HIERARCHY
ROOT Hips
{
	OFFSET 0.000000 0.000000 0.000000 
	CHANNELS 6 Xposition Yposition Zposition Zrotation Yrotation Xrotation
	JOINT LeftUpLeg
	{
		OFFSET 1.363060 -1.794630 0.839290 
		CHANNELS 3 Zrotation Yrotation Xrotation
		JOINT LeftLeg
		{
			OFFSET 2.448110 -6.726130 0.000000 
			CHANNELS 3 Zrotation Yrotation Xrotation
			JOINT LeftFoot
			{
				OFFSET 2.562200 -7.039590 0.000000 
				CHANNELS 3 Zrotation Yrotation Xrotation
				JOINT LeftToeBase
				{
					OFFSET 0.157640 -0.433110 2.322550 
					CHANNELS 3 Zrotation Yrotation Xrotation
					End Site
					{
						OFFSET 0.000000 0.000000 0.000000 
					}
				}
			}
		}
	}
	JOINT RightUpLeg
	{
		OFFSET -1.305520 -1.794630 0.839290 
		CHANNELS 3 Zrotation Yrotation Xrotation
		JOINT RightLeg
		{
			OFFSET -2.542530 -6.985550 0.000000 
			CHANNELS 3 Zrotation Yrotation Xrotation
			JOINT RightFoot
			{
				OFFSET -2.568260 -7.056230 0.000000 
				CHANNELS 3 Zrotation Yrotation Xrotation
				JOINT RightToeBase
				{
					OFFSET -0.164730 -0.452590 2.363150 
					CHANNELS 3 Zrotation Yrotation Xrotation
					End Site
					{
						OFFSET 0.000000 0.000000 0.000000 
					}
				}
			}
		}
	}
	JOINT Spine
	{
		OFFSET 0.028270 2.035590 -0.193380 
		CHANNELS 3 Zrotation Yrotation Xrotation
		JOINT Spine1
		{
			OFFSET 0.056720 2.048850 -0.042750 
			CHANNELS 3 Zrotation Yrotation Xrotation
			JOINT Neck1
			{
				OFFSET -0.054170 1.746240 0.172020 
				CHANNELS 3 Zrotation Yrotation Xrotation
				JOINT Head
				{
					OFFSET 0.104070 1.761360 -0.123970 
					CHANNELS 3 Zrotation Yrotation Xrotation
					End Site
					{
						OFFSET 0.000000 0.000000 0.000000 
					}
				}
			}
			JOINT LeftArm
			{
				OFFSET 3.362410 1.200890 -0.311210 
				CHANNELS 3 Zrotation Yrotation Xrotation
				JOINT LeftForeArm
				{
					OFFSET 4.983000 -0.000000 -0.000000 
					CHANNELS 3 Zrotation Yrotation Xrotation
					JOINT LeftHand
					{
						OFFSET 3.483560 -0.000000 -0.000000 
						CHANNELS 3 Zrotation Yrotation Xrotation
						JOINT LeftHandIndex1
						{
							OFFSET 0.715260 -0.000000 -0.000000 
							CHANNELS 3 Zrotation Yrotation Xrotation
							End Site
							{
								OFFSET 0.000000 0.000000 0.000000 
							}
						}
					}
				}
			}
			JOINT RightArm
			{
				OFFSET -3.136600 1.374050 -0.404650 
				CHANNELS 3 Zrotation Yrotation Xrotation
				JOINT RightForeArm
				{
					OFFSET -5.241900 -0.000000 -0.000000 
					CHANNELS 3 Zrotation Yrotation Xrotation
					JOINT RightHand
					{
						OFFSET -3.444170 -0.000000 -0.000000 
						CHANNELS 3 Zrotation Yrotation Xrotation
						JOINT RightHandIndex1
						{
							OFFSET -0.622530 -0.000000 -0.000000 
							CHANNELS 3 Zrotation Yrotation Xrotation
							End Site
							{
								OFFSET 0.000000 0.000000 0.000000 
							}
						}
					}
				}
			}
		}
	}
}
MOTION
Frames: 13
Frame Time: 0.041667
0.725887 16.987309 -6.826743 0.623640 -1.923437 8.738794 -28.829721 -14.819039 -7.336720 -0.897911 8.650870 22.196303 -0.888070 13.419831 -18.525177 0.004600 0.437100 1.200900 29.570172 14.080891 -13.416044 -0.266028 -11.670206 30.840025 0.309851 -9.962517 -19.185408 -0.022000 -0.957900 2.633100 0.976390 -0.738039 -5.288881 -4.557142 -0.520179 -1.951432 4.959809 3.440419 19.889817 -3.118700 3.492900 19.481100 -98.751829 9.858878 17.328697 27.067081 -36.344839 -5.946511 -0.626727 4.343325 14.255196 -7.125000 0.000000 0.000000 96.744606 -0.839241 16.036415 -17.257200 28.587455 -2.840092 -1.039014 -2.747596 19.490147 7.125000 0.000000 0.000000 
0.720999 16.987091 -6.827286 0.552158 -1.959822 8.742702 -28.727978 -14.806833 -7.403720 -0.880044 8.690408 22.308694 -0.883761 13.418031 -18.586678 0.004300 0.424400 1.166100 29.713623 14.433870 -13.268482 -0.240641 -11.647573 30.744334 0.353092 -10.257473 -19.259462 -0.014500 -0.777200 2.136100 0.984420 -0.724478 -5.287967 -4.510377 -0.512480 -1.950603 4.960420 3.470625 19.888638 -3.117700 3.502000 19.495300 -98.763590 9.858831 17.312886 27.039657 -36.328544 -5.937519 -0.618825 4.343714 14.319382 -7.125000 0.000000 0.000000 96.748681 -0.854516 16.031235 -17.249939 28.573022 -2.838845 -1.034241 -2.760134 19.563426 7.125000 0.000000 0.000000 
0.709705 16.986005 -6.827178 0.411019 -2.079028 8.755348 -28.537454 -14.801891 -7.407296 -0.873252 8.686292 22.318698 -0.898397 13.516373 -18.647871 0.003600 0.385900 1.060300 29.955042 14.928875 -13.159852 -0.220048 -11.660791 30.710719 0.401157 -10.597001 -19.358202 -0.026000 -1.040700 2.860800 0.992272 -0.660354 -5.284726 -4.441553 -0.478785 -1.944835 4.960032 3.447306 19.875205 -3.130000 3.495000 19.482000 -98.726154 9.861394 17.334543 27.016501 -36.314676 -5.930517 -0.614496 4.344600 14.332860 -7.125000 0.000000 0.000000 96.766258 -0.874949 16.107362 -17.253402 28.566950 -2.837903 -1.041039 -2.755247 19.468194 7.125000 0.000000 0.000000 
0.717198 16.986766 -6.827286 0.513704 -1.968986 8.741998 -28.670132 -14.816026 -7.415281 -0.875281 8.698042 22.333319 -0.885884 13.436047 -18.607321 0.003900 0.401300 1.102500 29.779457 14.483937 -13.251622 -0.234064 -11.645010 30.724629 0.362751 -10.309416 -19.250215 -0.019200 -0.895400 2.461200 0.986711 -0.701803 -5.286502 -4.499855 -0.499914 -1.961483 4.930643 3.441461 19.846085 -3.160800 3.493900 19.434800 -98.749323 9.864265 17.292570 27.011630 -36.304129 -5.928715 -0.610514 4.345039 14.327999 -7.125000 0.000000 0.000000 96.768940 -0.886391 16.026902 -17.228314 28.550366 -2.832158 -1.031769 -2.759657 19.540387 7.125000 0.000000 0.000000 
0.717741 16.986766 -6.827395 0.524877 -1.941544 8.737610 -28.683998 -14.815994 -7.412672 -0.875947 8.697698 22.331170 -0.884165 13.420655 -18.593493 0.003600 0.388200 1.066700 29.766186 14.449095 -13.250749 -0.236533 -11.644091 30.730376 0.362099 -10.306156 -19.252759 -0.018700 -0.883400 2.427900 0.986148 -0.705444 -5.285319 -4.513680 -0.501855 -1.967044 4.908341 3.423410 19.818505 -3.190100 3.489000 19.391700 -98.749412 9.862974 17.273033 26.996471 -36.290068 -5.924300 -0.605515 4.346369 14.328833 -7.125000 0.000000 0.000000 96.779998 -0.894721 15.989589 -17.208791 28.534534 -2.827966 -1.030853 -2.760483 19.571460 7.125000 0.000000 0.000000 
0.718936 16.986657 -6.827504 0.545530 -1.905242 8.731725 -28.712208 -14.813034 -7.391774 -0.881242 8.685426 22.297391 -0.883712 13.404478 -18.561755 0.003400 0.378200 1.039000 29.736488 14.388871 -13.266070 -0.244671 -11.651073 30.761765 0.356829 -10.281003 -19.264625 -0.019000 -0.891100 2.449200 0.984643 -0.712392 -5.283972 -4.535145 -0.505735 -1.972709 4.883929 3.400032 19.787303 -3.222700 3.482700 19.341200 -98.748902 9.860701 17.247277 26.982849 -36.276486 -5.920575 -0.600391 4.347827 14.322581 -7.125000 0.000000 0.000000 96.790978 -0.902282 15.952644 -17.190367 28.521090 -2.824150 -1.030958 -2.759910 19.595257 7.125000 0.000000 0.000000 
0.720239 16.986548 -6.827504 0.568494 -1.868718 8.724701 -28.743024 -14.816151 -7.380201 -0.883401 8.682320 22.287095 -0.880979 13.382939 -18.544362 0.003300 0.373700 1.026900 29.705242 14.323595 -13.271433 -0.250076 -11.651233 30.776512 0.352646 -10.257128 -19.267888 -0.019400 -0.899200 2.471600 0.982909 -0.720226 -5.282219 -4.558072 -0.510035 -1.975780 4.862264 3.379647 19.756221 -3.252000 3.477300 19.291400 -98.746885 9.855614 17.217586 26.968712 -36.262152 -5.916940 -0.595679 4.349866 14.315343 -7.125000 0.000000 0.000000 96.804730 -0.903911 15.902285 -17.168636 28.505082 -2.819929 -1.032915 -2.757494 19.634453 7.125000 0.000000 0.000000 
0.720674 16.986440 -6.827395 0.580372 -1.842248 8.718660 -28.758999 -14.819818 -7.369766 -0.884793 8.679781 22.280151 -0.879028 13.367704 -18.533459 0.003300 0.369000 1.013900 29.692823 14.297526 -13.266456 -0.253357 -11.651541 30.786087 0.351977 -10.259047 -19.278526 -0.020400 -0.922200 2.534700 0.981746 -0.724177 -5.280331 -4.574863 -0.512299 -1.976181 4.847042 3.363878 19.728556 -3.273700 3.473100 19.249200 -98.741800 9.849419 17.186852 26.954312 -36.247735 -5.913314 -0.591307 4.351732 14.310392 -7.125000 0.000000 0.000000 96.817614 -0.903004 15.861668 -17.149542 28.490994 -2.816384 -1.035767 -2.754699 19.666680 7.125000 0.000000 0.000000 
0.720131 16.986223 -6.827178 0.579102 -1.827980 8.713773 -28.756816 -14.824450 -7.361165 -0.884953 8.678341 22.277656 -0.877898 13.360624 -18.532613 0.003300 0.373400 1.025900 29.700726 14.299413 -13.255763 -0.254299 -11.651682 30.789566 0.353582 -10.274416 -19.289928 -0.021800 -0.953900 2.622100 0.981574 -0.723964 -5.278417 -4.582284 -0.512348 -1.974052 4.839132 3.355441 19.705250 -3.286700 3.470800 19.216900 -98.734639 9.841780 17.154228 26.938404 -36.232017 -5.908576 -0.586550 4.352489 14.313439 -7.125000 0.000000 0.000000 96.828341 -0.901096 15.834126 -17.137507 28.481351 -2.813811 -1.038223 -2.751135 19.691136 7.125000 0.000000 0.000000 
0.719370 16.986114 -6.826852 0.576117 -1.816563 8.709484 -28.751428 -14.828244 -7.355855 -0.884583 8.678456 22.279589 -0.876658 13.353514 -18.532092 0.003400 0.377400 1.037100 29.709979 14.292550 -13.247598 -0.254424 -11.650648 30.789348 0.354030 -10.280085 -19.294806 -0.022700 -0.972500 2.673000 0.981626 -0.723586 -5.276681 -4.585515 -0.512303 -1.967955 4.839184 3.357745 19.688578 -3.289000 3.471600 19.199000 -98.727462 9.832936 17.120673 26.923739 -36.217352 -5.904302 -0.582903 4.353376 14.321322 -7.125000 0.000000 0.000000 96.834806 -0.897586 15.819684 -17.131900 28.477226 -2.812680 -1.039768 -2.748746 19.706058 7.125000 0.000000 0.000000 
0.718719 16.986005 -6.826418 0.574284 -1.805510 8.706202 -28.747429 -14.832825 -7.351473 -0.883887 8.679434 22.283132 -0.875384 13.345935 -18.532566 0.003400 0.378800 1.040900 29.717316 14.281890 -13.240408 -0.254325 -11.648896 30.787442 0.354004 -10.281978 -19.298163 -0.022900 -0.977900 2.688100 0.981538 -0.723186 -5.274586 -4.587578 -0.512180 -1.957950 4.841329 3.360274 19.673356 -3.288400 3.472100 19.183200 -98.718137 9.822824 17.091888 26.908294 -36.202025 -5.899747 -0.579883 4.354480 14.330781 -7.125000 0.000000 0.000000 96.837500 -0.894832 15.818133 -17.134839 28.480523 -2.813046 -1.040843 -2.745642 19.708186 7.125000 0.000000 0.000000 
0.717959 16.985897 -6.825766 0.572360 -1.793925 8.704987 -28.742428 -14.836220 -7.349545 -0.883545 8.680156 22.285705 -0.874268 13.337983 -18.529753 0.003400 0.378100 1.038800 29.723993 14.269899 -13.235579 -0.254276 -11.647521 30.786154 0.353565 -10.281899 -19.301899 -0.022900 -0.977800 2.687900 0.981518 -0.723038 -5.272547 -4.588571 -0.512077 -1.945733 4.843674 3.361945 19.659583 -3.287500 3.472300 19.170200 -98.706995 9.813683 17.070126 26.894653 -36.188342 -5.895754 -0.577202 4.355474 14.335478 -7.125000 0.000000 0.000000 96.835522 -0.896162 15.831723 -17.147841 28.492410 -2.815551 -1.040582 -2.743910 19.691085 7.125000 0.000000 0.000000 
0.717198 16.985897 -6.825223 0.569354 -1.783391 8.704810 -28.735320 -14.836830 -7.348698 -0.883137 8.680529 22.287278 -0.873382 13.330213 -18.524967 0.003300 0.373700 1.026800 29.732411 14.262311 -13.231064 -0.254226 -11.646628 30.785395 0.353410 -10.284455 -19.306766 -0.022900 -0.977500 2.686900 0.981653 -0.722500 -5.270416 -4.587254 -0.511731 -1.931871 4.846437 3.362928 19.646518 -3.286000 3.472100 19.158400 -98.694138 9.805724 17.056433 26.883697 -36.177400 -5.892770 -0.574855 4.356442 14.337067 -7.125000 0.000000 0.000000 96.830177 -0.900182 15.854338 -17.168537 28.511456 -2.819931 -1.038435 -2.745573 19.657624 7.125000 0.000000 0.000000 
